<svg xmlns="http://www.w3.org/2000/svg" xmlns:xlink="http://www.w3.org/1999/xlink" x="0px" y="0px" viewBox="0 0 127.6 30.1" style="enable-background:new 0 0 127.6 30.1;" xml:space="preserve">
<style type="text/css">
	.st0{fill:none;stroke:#6D6E71;stroke-width:0.45;stroke-miterlimit:10;}
	.st1{opacity:0.5;fill:none;stroke:#6D6E71;stroke-width:0.5;stroke-miterlimit:10;}
	.st2{opacity:0.4;}
	.st3{opacity:0.5;fill:none;stroke:#6D6E71;stroke-width:0.4619;stroke-miterlimit:10;}
	.st4{opacity:0.5;fill:none;stroke:#6D6E71;stroke-width:0.5019;stroke-miterlimit:10;}
	.st5{fill:#26C49E;}
	.st6{opacity:0.2;}
	.st7{fill:#FFFFFF;}
	.st8{fill:none;stroke:#23C581;stroke-width:1.5;stroke-miterlimit:10;}
	.st9{fill:#F9F6F3;}
	.st10{opacity:0.3;fill:none;stroke:#C9C9C9;stroke-width:2;stroke-miterlimit:10;}
	.st11{opacity:0.5;fill:#C9C9C9;}
	.st12{fill:#27C1A3;}
	.st13{fill:#0FA88A;}
	.st14{opacity:0.15;fill:#27C1A3;}
	.st15{fill:#E0F1FF;}
	.st16{fill:#66C1FF;}
	.st17{fill:#96D5FF;}
	.st18{fill:#70C6FF;}
	.st19{fill:#ADE4FF;}
	.st20{fill:#CCDEFF;}
	.st21{fill:#B8D1FF;}
	.st22{fill:#2E5F87;}
	.st23{fill:#E0EBFF;}
	.st24{fill:#A6C5FF;}
	.st25{fill:#8AB3FF;}
	.st26{opacity:0.25;fill:#F9E7D7;}
	.st27{opacity:0.15;}
	.st28{fill:#B6C7FF;}
	.st29{fill:#7F9CE5;}
	.st30{fill:#5C82CC;}
	.st31{fill:#3B7AC3;}
	.st32{opacity:0.4;fill:#FFFFFF;}
	.st33{opacity:0.3;}
	.st34{fill:#D1E2F7;}
	.st35{fill:#940094;}
	.st36{fill:#231F20;}
	.st37{fill:#A7A9AC;}
	.st38{fill:#313534;}
	.st39{fill:#5C37B5;}
	.st40{fill:#B721D6;}
	.st41{fill:#DFF6F1;}
	.st42{opacity:0.3;fill:#C9C9C9;}
	.st43{opacity:0.7;}
	.st44{fill:#603E4F;}
	.st45{fill:#3A242F;}
	.st46{fill:url(#SVGID_1_);}
	.st47{opacity:0.41;fill:#FFFFFF;}
	.st48{opacity:0.43;fill:url(#SVGID_2_);}
	.st49{fill:#FFD130;}
	.st50{fill:url(#SVGID_3_);}
	.st51{opacity:0.43;fill:url(#SVGID_4_);}
	.st52{fill:#367082;}
	.st53{fill:#88BDDA;}
	.st54{fill:#91E2F6;}
	.st55{fill:#001F46;}
	.st56{fill:#3DC7C9;}
	.st57{fill:#33A8B5;}
	.st58{fill:#8E574A;}
	.st59{fill:#B0BFDE;}
	.st60{fill:#282723;}
	.st61{fill:#A06857;}
	.st62{fill:#2C7EEA;}
	.st63{fill:#D1DBEA;}
	.st64{fill:#161711;}
	.st65{fill:#194866;}
	.st66{fill:#163F59;}
	.st67{fill:#D0DEE6;}
	.st68{fill:#B6C2C9;}
	.st69{fill:#ACD5F4;}
	.st70{fill:#86BBD8;}
	.st71{fill:url(#SVGID_5_);}
	.st72{fill:#EAE1FF;}
	.st73{opacity:0.45;}
	.st74{fill:url(#SVGID_6_);}
	.st75{fill:url(#SVGID_7_);}
	.st76{fill:url(#SVGID_8_);}
	.st77{fill:url(#SVGID_9_);}
	.st78{fill:url(#SVGID_10_);}
	.st79{fill:url(#SVGID_11_);}
	.st80{fill:url(#SVGID_12_);}
	.st81{fill:url(#SVGID_13_);}
	.st82{fill:url(#SVGID_14_);}
	.st83{fill:url(#SVGID_15_);}
	.st84{fill:url(#SVGID_16_);}
	.st85{fill:url(#SVGID_17_);}
	.st86{fill:url(#SVGID_18_);}
	.st87{fill:url(#SVGID_19_);}
	.st88{fill:url(#SVGID_20_);}
	.st89{fill:url(#SVGID_21_);}
	.st90{fill:url(#SVGID_22_);}
	.st91{fill:url(#SVGID_23_);}
	.st92{opacity:0.74;}
	.st93{fill:url(#SVGID_26_);}
	.st94{fill:url(#SVGID_27_);}
	.st95{fill:url(#SVGID_28_);}
	.st96{fill:#D4AD28;}
	.st97{fill:url(#SVGID_29_);}
	.st98{fill:#191919;}
	.st99{fill:none;}
	.st100{fill:url(#SVGID_30_);}
	.st101{fill:#0080FF;}
	.st102{fill:url(#SVGID_31_);}
	.st103{opacity:0.43;fill:url(#SVGID_32_);}
	.st104{fill:url(#SVGID_33_);}
	.st105{opacity:0.43;fill:url(#SVGID_34_);}
	.st106{fill:#151516;}
	.st107{fill:url(#SVGID_35_);}
	.st108{fill:url(#SVGID_36_);}
	.st109{fill:url(#SVGID_37_);}
	.st110{fill:url(#SVGID_38_);}
	.st111{fill:url(#SVGID_39_);}
	.st112{fill:url(#SVGID_40_);}
	.st113{fill:url(#SVGID_41_);}
	.st114{fill:url(#SVGID_42_);}
	.st115{fill:url(#SVGID_43_);}
	.st116{fill:url(#SVGID_44_);}
	.st117{fill:url(#SVGID_45_);}
	.st118{fill:url(#SVGID_46_);}
	.st119{fill:url(#SVGID_47_);}
	.st120{fill:url(#SVGID_48_);}
	.st121{fill:#5B3112;}
	.st122{fill:#A634D6;}
	.st123{fill:#04162F;}
	.st124{fill:#542A0E;}
	.st125{opacity:0.2;fill:#ED7E7C;}
	.st126{opacity:0.5;fill:#F3B896;}
	.st127{fill:url(#SVGID_49_);}
	.st128{fill:#4E3016;}
	.st129{fill:url(#SVGID_50_);}
	.st130{fill:url(#SVGID_51_);}
	.st131{fill:url(#SVGID_52_);}
	.st132{fill:url(#SVGID_53_);}
	.st133{fill:url(#SVGID_54_);}
	.st134{fill:url(#SVGID_55_);}
	.st135{fill:url(#SVGID_56_);}
	.st136{fill:url(#SVGID_57_);}
	.st137{opacity:0.5;fill:#5B3C2D;}
	.st138{fill:url(#SVGID_58_);}
	.st139{fill:url(#SVGID_59_);}
	.st140{fill:#2B64BF;}
	.st141{fill:#2C6AE4;}
	.st142{fill:#A9CEE6;}
	.st143{fill:#71A4F7;}
	.st144{opacity:0.35;fill:#C22F96;}
	.st145{fill:#F6A18A;}
	.st146{fill:#EA9E7C;}
	.st147{fill:#4F94F7;}
	.st148{fill:#A86935;}
	.st149{fill:#544ADD;}
	.st150{fill:#4C283C;}
	.st151{fill:#3D29CE;}
	.st152{fill:#7AB5BC;}
	.st153{fill:#5353E0;}
</style>
<g id="Typography_in_Action_Page">
</g>
<g id="Color_Palette_Page_-_Option_2">
</g>
<g id="Color_Palette_Page_-_Option_1">
</g>
<g id="Typography_Page">
</g>
<g id="Wordmark_Page">
</g>
<g id="Cover">
</g>
<g id="Extra_Elements">
	<path class="st12" d="M92,1.5h-4c-0.2,0-0.3,0.1-0.4,0.2L76.2,13.9c-0.3,0.4-1,0.1-1-0.4V2.1c0-0.3-0.3-0.6-0.6-0.6h-3.2   c-0.3,0-0.6,0.3-0.6,0.6v26.6c0,0.3,0.3,0.6,0.6,0.6h3.2c0.3,0,0.6-0.3,0.6-0.6v-7.5c0-0.1,0.1-0.3,0.1-0.4l1.8-2l1.6-1.7   c0.1-0.2,0.4-0.2,0.6-0.2c1.9,0.5,3.5,1.2,4.7,2.2c1.3,1,2.2,2.1,3,3.3c0,0,0,0,0,0.1c1,1.9,1.5,3.5,1.5,3.5   c0.2,0.9,0.4,1.6,0.4,2.2c0,0.2,0,0.4,0,0.5c0,0.3,0.3,0.5,0.6,0.5h2.7c0.3,0,0.6-0.3,0.6-0.6c0,0,0-0.1,0-0.1c0-0.4-0.1-1-0.2-1.6   c-0.1-0.7-0.3-1.4-0.5-2.3c-0.2-0.8-0.6-1.7-1-2.7c-0.3-0.7-0.8-1.5-1.3-2.3c-0.5-0.8-1.1-1.6-1.9-2.3c-0.7-0.7-1.6-1.4-2.6-2.1   c-0.8-0.5-1.7-1-2.6-1.4c-0.4-0.1-0.5-0.6-0.2-0.9l0.1-0.1l9.8-10.6C92.7,2.1,92.5,1.5,92,1.5z M25.5,0.9L25.5,0.9L25.5,0.9   L25.5,0.9l-9.7,9.4c-0.2,0.2-0.6,0.2-0.8,0L5.4,0.9v0h-4c-0.3,0-0.6,0.3-0.6,0.6v27.2c0,0.3,0.3,0.6,0.6,0.6h3.4   c0.3,0,0.6-0.3,0.6-0.6V8.4C5.4,7.9,6,7.7,6.4,8l8.7,8c0.2,0.2,0.5,0.2,0.8,0L24.6,8c0.4-0.3,0.9-0.1,0.9,0.4v20.2   c0,0.3,0.3,0.6,0.6,0.6h3.4c0.3,0,0.6-0.3,0.6-0.6V1.5c0-0.3-0.3-0.6-0.6-0.6L25.5,0.9L25.5,0.9z M126.7,27.9L115.7,1.5   c0-0.1-0.1-0.1-0.2-0.1h-3.7c-0.3,0-0.6,0.2-0.7,0.5l-10.8,26.1c-0.2,0.5,0.2,1,0.7,1h2.9c0.3,0,0.6-0.2,0.7-0.5l1.3-3.3   c0.1-0.3,0.4-0.5,0.7-0.5h13.7c0.3,0,0.6,0.2,0.7,0.5l1.3,3.3c0.1,0.3,0.4,0.5,0.7,0.5h2.9C126.5,28.9,126.9,28.4,126.7,27.9z    M118.3,21h-9.5c-0.5,0-0.9-0.5-0.7-1l0.8-2l1.5-3.9l2.4-6c0.3-0.6,1.2-0.6,1.4,0l2.4,6l1.5,3.9l0.8,2   C119.2,20.5,118.8,21,118.3,21z M60.7,1.1h-3.3c-0.3,0-0.6,0.3-0.6,0.6V6c0,0.3-0.2,0.5-0.4,0.5c-0.4,0.1-0.8,0.2-1.3,0.4   c-0.6,0.2-1.3,0.5-2,0.9c-0.7,0.4-1.4,0.8-2.1,1.4c-0.7,0.6-1.3,1.2-1.9,2c-0.5,0.7-1,1.4-1.4,2.3c-0.1,0.2-0.4,0.4-0.7,0.3   c-0.9-0.3-1.7-0.4-2.4-0.5c-0.6-0.1-1.2-0.1-1.7-0.1c-0.3,0-0.5-0.3-0.5-0.6V1.7c0-0.3-0.3-0.6-0.6-0.6h-3.3   c-0.3,0-0.6,0.3-0.6,0.6v16c0,3.1,1.1,5.8,3.4,8c2.3,2.2,5,3.3,8.2,3.3c3.2,0,5.9-1.1,8.2-3.3c2.3-2.2,3.4-4.9,3.4-8V6.4l0-0.2l0,0   V1.7C61.3,1.4,61,1.1,60.7,1.1z M49.7,25.2c-1.9,0-3.6-0.7-5.1-2.2c-1.4-1.5-2.2-3.2-2.2-5.3v-0.2c0-0.3,0.3-0.6,0.6-0.6   c0.4,0,1,0.1,1.6,0.2c0.9,0.1,1.9,0.5,3,1c1,0.5,2,1.3,3,2.3c0.9,0.9,1.6,2.1,2.1,3.6c0.1,0.3,0,0.6-0.3,0.7   C51.6,25,50.7,25.2,49.7,25.2z M56.9,17.7c0,1-0.2,1.9-0.5,2.8c-0.2,0.4-0.8,0.4-1,0c-0.5-1-1.1-1.8-1.7-2.6   c-0.7-0.8-1.5-1.5-2.3-2.1c-0.2-0.2-0.3-0.5-0.2-0.7c0.7-1.4,1.5-2.4,2.5-3.1c0.8-0.6,1.7-1.1,2.5-1.4c0.4-0.1,0.8,0.1,0.8,0.5   L56.9,17.7z"></path>
</g>
<g id="Layer_8">
</g>
<g id="Layer_9">
</g>
</svg>