<?xml version="1.0" encoding="UTF-8" standalone="no"?>
<!DOCTYPE svg PUBLIC "-//W3C//DTD SVG 1.1//EN" "http://www.w3.org/Graphics/SVG/1.1/DTD/svg11.dtd">
<svg width="100%" height="100%" viewBox="0 0 128 31" version="1.1" xmlns="http://www.w3.org/2000/svg" xmlns:xlink="http://www.w3.org/1999/xlink" xml:space="preserve" xmlns:serif="http://www.serif.com/" style="fill-rule:evenodd;clip-rule:evenodd;stroke-linejoin:round;stroke-miterlimit:2;">
    <g id="Extra_Elements">
        <path d="M92,1.5L88,1.5C87.8,1.5 87.7,1.6 87.6,1.7L76.2,13.9C75.9,14.3 75.2,14 75.2,13.5L75.2,2.1C75.2,1.8 74.9,1.5 74.6,1.5L71.4,1.5C71.1,1.5 70.8,1.8 70.8,2.1L70.8,28.7C70.8,29 71.1,29.3 71.4,29.3L74.6,29.3C74.9,29.3 75.2,29 75.2,28.7L75.2,21.2C75.2,21.1 75.3,20.9 75.3,20.8L77.1,18.8L78.7,17.1C78.8,16.9 79.1,16.9 79.3,16.9C81.2,17.4 82.8,18.1 84,19.1C85.3,20.1 86.2,21.2 87,22.4L87,22.5C88,24.4 88.5,26 88.5,26C88.7,26.9 88.9,27.6 88.9,28.2L88.9,28.7C88.9,29 89.2,29.2 89.5,29.2L92.2,29.2C92.5,29.2 92.8,28.9 92.8,28.6L92.8,28.5C92.8,28.1 92.7,27.5 92.6,26.9C92.5,26.2 92.3,25.5 92.1,24.6C91.9,23.8 91.5,22.9 91.1,21.9C90.8,21.2 90.3,20.4 89.8,19.6C89.3,18.8 88.7,18 87.9,17.3C87.2,16.6 86.3,15.9 85.3,15.2C84.5,14.7 83.6,14.2 82.7,13.8C82.3,13.7 82.2,13.2 82.5,12.9L82.6,12.8L92.4,2.2C92.7,2.1 92.5,1.5 92,1.5ZM25.5,0.9L15.8,10.3C15.6,10.5 15.2,10.5 15,10.3L5.4,0.9L1.4,0.9C1.1,0.9 0.8,1.2 0.8,1.5L0.8,28.7C0.8,29 1.1,29.3 1.4,29.3L4.8,29.3C5.1,29.3 5.4,29 5.4,28.7L5.4,8.4C5.4,7.9 6,7.7 6.4,8L15.1,16C15.3,16.2 15.6,16.2 15.9,16L24.6,8C25,7.7 25.5,7.9 25.5,8.4L25.5,28.6C25.5,28.9 25.8,29.2 26.1,29.2L29.5,29.2C29.8,29.2 30.1,28.9 30.1,28.6L30.1,1.5C30.1,1.2 29.8,0.9 29.5,0.9L25.5,0.9ZM126.7,27.9L115.7,1.5C115.7,1.4 115.6,1.4 115.5,1.4L111.8,1.4C111.5,1.4 111.2,1.6 111.1,1.9L100.3,28C100.1,28.5 100.5,29 101,29L103.9,29C104.2,29 104.5,28.8 104.6,28.5L105.9,25.2C106,24.9 106.3,24.7 106.6,24.7L120.3,24.7C120.6,24.7 120.9,24.9 121,25.2L122.3,28.5C122.4,28.8 122.7,29 123,29L125.9,29C126.5,28.9 126.9,28.4 126.7,27.9ZM118.3,21L108.8,21C108.3,21 107.9,20.5 108.1,20L108.9,18L110.4,14.1L112.8,8.1C113.1,7.5 114,7.5 114.2,8.1L116.6,14.1L118.1,18L118.9,20C119.2,20.5 118.8,21 118.3,21ZM60.7,1.1L57.4,1.1C57.1,1.1 56.8,1.4 56.8,1.7L56.8,6C56.8,6.3 56.6,6.5 56.4,6.5C56,6.6 55.6,6.7 55.1,6.9C54.5,7.1 53.8,7.4 53.1,7.8C52.4,8.2 51.7,8.6 51,9.2C50.3,9.8 49.7,10.4 49.1,11.2C48.6,11.9 48.1,12.6 47.7,13.5C47.6,13.7 47.3,13.9 47,13.8C46.1,13.5 45.3,13.4 44.6,13.3C44,13.2 43.4,13.2 42.9,13.2C42.6,13.2 42.4,12.9 42.4,12.6L42.4,1.7C42.4,1.4 42.1,1.1 41.8,1.1L38.5,1.1C38.2,1.1 37.9,1.4 37.9,1.7L37.9,17.7C37.9,20.8 39,23.5 41.3,25.7C43.6,27.9 46.3,29 49.5,29C52.7,29 55.4,27.9 57.7,25.7C60,23.5 61.1,20.8 61.1,17.7L61.1,1.7C61.3,1.4 61,1.1 60.7,1.1ZM49.7,25.2C47.8,25.2 46.1,24.5 44.6,23C43.2,21.5 42.4,19.8 42.4,17.7L42.4,17.5C42.4,17.2 42.7,16.9 43,16.9C43.4,16.9 44,17 44.6,17.1C45.5,17.2 46.5,17.6 47.6,18.1C48.6,18.6 49.6,19.4 50.6,20.4C51.5,21.3 52.2,22.5 52.7,24C52.8,24.3 52.7,24.6 52.4,24.7C51.6,25 50.7,25.2 49.7,25.2ZM56.9,17.7C56.9,18.7 56.7,19.6 56.4,20.5C56.2,20.9 55.6,20.9 55.4,20.5C54.9,19.5 54.3,18.7 53.7,17.9C53,17.1 52.2,16.4 51.4,15.8C51.2,15.6 51.1,15.3 51.2,15.1C51.9,13.7 52.7,12.7 53.7,12C54.5,11.4 55.4,10.9 56.2,10.6C56.6,10.5 57,10.7 57,11.1L56.9,17.7Z" style="fill:white;fill-rule:nonzero;"/>
    </g>
</svg>
